<?xml version="1.0" standalone="no"?>
<!DOCTYPE svg PUBLIC "-//W3C//DTD SVG 20010904//EN"
 "http://www.w3.org/TR/2001/REC-SVG-20010904/DTD/svg10.dtd">
<svg version="1.0" xmlns="http://www.w3.org/2000/svg"
 width="140.000000pt" height="140.000000pt" viewBox="0 0 140.000000 140.000000"
 preserveAspectRatio="xMidYMid meet">

<g transform="translate(0.000000,140.000000) scale(0.100000,-0.100000)"
fill="#FEF52B" stroke="none">
<path d="M427 857 c-41 -23 -74 -73 -158 -237 -24 -47 -45 -88 -47 -92 -2 -5
36 -8 85 -8 l88 0 93 174 c50 96 92 177 92 180 0 4 -26 6 -57 6 -41 0 -69 -7
-96 -23z"/>
<path d="M524 713 c-48 -93 -91 -174 -97 -180 -7 -10 10 -13 81 -13 l91 0 29
53 c16 28 59 109 96 180 l67 127 -90 0 -90 0 -87 -167z"/>
<path d="M725 708 c-49 -94 -91 -175 -93 -180 -2 -4 22 -8 53 -8 65 0 124 26
152 67 20 29 153 280 153 288 0 3 -39 5 -87 5 l-88 0 -90 -172z"/>
<path d="M1055 868 c-33 -17 -45 -40 -45 -80 0 -83 83 -116 142 -58 26 27 30
36 25 67 -11 67 -68 101 -122 71z"/>
</g>
</svg>
